<?xml version="1.0" standalone="no"?>
<!DOCTYPE svg PUBLIC "-//W3C//DTD SVG 20010904//EN"
 "http://www.w3.org/TR/2001/REC-SVG-20010904/DTD/svg10.dtd">
<svg version="1.0" xmlns="http://www.w3.org/2000/svg"
 width="520.000000pt" height="520.000000pt" viewBox="0 0 520.000000 520.000000"
 preserveAspectRatio="xMidYMid meet">
<metadata>
Created by potrace 1.11, written by Peter Selinger 2001-2013
</metadata>
<g transform="translate(0.000000,520.000000) scale(0.100000,-0.100000)"
fill="#000000" stroke="none">
<path d="M2468 4945 c-1 -1 -32 -6 -68 -9 -95 -9 -122 -14 -255 -47 -523 -127
-973 -473 -1234 -948 -28 -51 -51 -95 -51 -97 0 -2 -13 -32 -29 -66 -16 -35
-45 -113 -64 -174 -34 -104 -40 -126 -52 -191 -3 -16 -10 -49 -15 -74 -25
-124 -34 -391 -17 -546 6 -59 32 -199 51 -273 78 -306 258 -626 484 -860 l43
-45 103 107 103 107 -47 48 c-158 163 -291 384 -366 608 -19 59 -37 117 -40
129 -2 11 -8 44 -14 71 -21 105 -30 201 -31 319 0 271 52 492 176 741 83 167
174 293 305 425 178 177 401 316 630 393 117 39 169 52 285 71 95 16 326 22
405 11 19 -2 55 -7 79 -10 25 -3 74 -13 110 -21 36 -8 76 -17 88 -19 56 -13
207 -71 293 -114 554 -273 912 -845 914 -1456 0 -84 -11 -256 -19 -277 -2 -7
-6 -29 -9 -48 -3 -19 -12 -56 -20 -82 -8 -27 -12 -48 -10 -48 6 0 -53 -162
-86 -236 -69 -153 -185 -328 -292 -440 l-58 -61 103 -108 103 -107 63 68 c192
209 332 446 420 709 34 103 56 196 86 365 14 74 13 405 0 495 -19 132 -23 151
-51 254 -33 122 -67 215 -119 326 -37 79 -137 254 -165 288 -5 7 -36 46 -68
87 -307 394 -767 654 -1282 725 -49 7 -376 16 -382 10z"/>
<path d="M2470 4449 c-509 -64 -944 -375 -1149 -822 -100 -217 -137 -396 -134
-647 3 -344 140 -685 378 -945 l55 -60 110 112 c60 62 110 115 110 119 0 3
-26 36 -57 72 -150 177 -220 333 -268 597 -6 35 -7 229 -1 265 3 14 7 43 11
65 39 270 214 548 450 717 65 47 211 125 266 143 13 4 26 8 29 9 129 52 397
72 553 42 354 -68 646 -287 806 -604 36 -72 87 -219 95 -277 4 -22 10 -64 15
-94 12 -79 5 -253 -14 -346 -42 -200 -135 -387 -264 -527 l-51 -56 113 -117
113 -117 63 68 c166 183 284 415 341 670 32 141 37 398 10 539 -25 133 -24
129 -53 216 -101 301 -299 560 -564 740 -71 48 -216 124 -283 148 -19 7 -44
17 -55 22 -33 14 -129 39 -191 50 -32 5 -72 12 -89 15 -49 8 -286 11 -345 3z"/>
<path d="M2437 3915 c-277 -57 -511 -235 -635 -480 -35 -71 -78 -207 -90 -286
-9 -59 -7 -226 3 -269 3 -14 8 -38 11 -55 8 -47 43 -144 76 -209 26 -53 82
-143 97 -156 3 -3 22 -24 42 -46 l37 -42 101 102 102 102 -22 25 c-81 92 -134
197 -157 309 -13 63 -6 212 12 275 133 454 674 607 1025 290 55 -50 133 -175
162 -260 20 -59 24 -90 24 -190 0 -163 -30 -255 -126 -381 -27 -36 -49 -68
-47 -69 2 -2 45 -47 96 -99 52 -53 97 -96 101 -96 10 0 76 78 114 134 60 88
127 245 143 338 12 70 11 280 -2 343 -73 347 -323 616 -659 707 -94 26 -314
33 -408 13z"/>
<path d="M2570 2873 c-13 -16 -46 -55 -74 -88 -28 -33 -53 -62 -56 -65 -3 -3
-28 -32 -55 -65 -28 -33 -57 -67 -65 -75 -8 -8 -37 -42 -65 -75 -27 -33 -52
-62 -55 -65 -3 -3 -28 -32 -55 -65 -28 -33 -55 -64 -61 -70 -6 -5 -33 -37 -60
-70 -27 -33 -63 -75 -81 -95 -17 -19 -60 -69 -95 -110 -35 -41 -73 -86 -85
-100 -25 -29 -41 -48 -103 -121 -25 -29 -76 -89 -115 -134 -38 -44 -95 -109
-125 -145 -30 -36 -57 -67 -60 -70 -3 -3 -30 -34 -59 -70 -30 -36 -64 -75 -75
-86 -12 -12 -34 -39 -51 -59 -16 -21 -35 -43 -42 -50 -11 -12 -40 -45 -138
-160 -27 -33 -67 -79 -89 -104 -21 -26 -59 -71 -85 -101 -25 -29 -55 -64 -66
-75 -11 -12 -37 -42 -58 -68 -21 -26 -43 -52 -50 -59 -7 -7 -37 -42 -67 -78
-30 -36 -57 -67 -60 -70 -4 -4 -49 -57 -135 -158 -11 -13 -33 -38 -48 -55
l-28 -32 1145 -3 c630 -1 1661 -1 2291 0 l1145 3 -28 30 c-15 17 -79 91 -142
165 -63 74 -116 137 -119 140 -4 3 -28 32 -56 65 -53 63 -93 110 -110 129 -6
6 -64 74 -129 151 -66 77 -124 145 -130 150 -6 6 -29 33 -51 60 -22 28 -43 52
-46 55 -3 3 -34 39 -69 80 -35 41 -68 80 -74 85 -6 6 -45 50 -86 100 -41 49
-82 97 -90 106 -22 23 -109 124 -175 204 -32 39 -75 88 -94 110 -41 47 -97
111 -240 280 -57 66 -112 131 -124 145 -12 14 -62 72 -111 130 -50 58 -92 107
-95 110 -4 3 -28 32 -56 65 -27 33 -57 67 -65 76 -18 18 -96 110 -136 159 -70
84 -61 80 -94 43z"/>
</g>
</svg>
